<mxfile host="65bd71144e">
    <diagram id="vGevdwLZ-z6PCxuflHgP" name="페이지-1">
        <mxGraphModel dx="1888" dy="820" grid="1" gridSize="10" guides="1" tooltips="1" connect="1" arrows="1" fold="1" page="1" pageScale="1" pageWidth="827" pageHeight="1169" math="0" shadow="0">
            <root>
                <mxCell id="0"/>
                <mxCell id="1" parent="0"/>
                <mxCell id="5" value="&lt;b&gt;&lt;font style=&quot;font-size: 150px;&quot;&gt;?&quot;완료&quot;:&quot;완료&quot;&lt;/font&gt;&lt;/b&gt;" style="text;strokeColor=none;align=center;fillColor=none;html=1;verticalAlign=middle;whiteSpace=wrap;rounded=0;strokeWidth=14;" parent="1" vertex="1">
                    <mxGeometry x="-70" y="420" width="1040" height="720" as="geometry"/>
                </mxCell>
            </root>
        </mxGraphModel>
    </diagram>
</mxfile>